<svg id="Layer_1" data-name="Layer 1" xmlns="http://www.w3.org/2000/svg" viewBox="0 0 80.07 46.74"><defs><style>.cls-1{fill:#52796f;}</style></defs><path class="cls-1" d="M39.83,46.74a2.56,2.56,0,0,1-1.72-.89L28.6,36.34l-25-25.06C2.69,10.41,1.81,9.55,1,8.67a2.56,2.56,0,0,1,0-4C2.15,3.46,3.36,2.25,4.58,1,6-.34,7.34-.34,8.73,1.05l30.6,30.61c.71.72.7.72,1.4,0L71.36,1a2.56,2.56,0,0,1,4-.06c1.28,1.23,2.52,2.48,3.75,3.75a2.59,2.59,0,0,1-.05,4L53.66,34.15,42,45.78A2.88,2.88,0,0,1,39.83,46.74Z" transform="translate(0)"/></svg>